<?xml version="1.0" standalone="no"?><!DOCTYPE svg PUBLIC "-//W3C//DTD SVG 1.1//EN" "http://www.w3.org/Graphics/SVG/1.1/DTD/svg11.dtd"><svg class="icon" width="200px" height="200.00px" viewBox="0 0 1024 1024" version="1.1" xmlns="http://www.w3.org/2000/svg"><path fill="#1afa29" d="M512 51.2c-254.49472 0-460.8 206.3104-460.8 460.8 0 254.49472 206.30528 460.8 460.8 460.8s460.8-206.30528 460.8-460.8C972.8 257.5104 766.49472 51.2 512 51.2zM332.58496 362.51648c0-10.752 8.02816-20.72064 24.06912-29.9008 16.03584-9.18528 37.85728-16.4608 65.40288-21.84704 27.57632-5.36576 57.55904-8.05376 89.94304-8.05376 32.38912 0 62.36672 2.688 89.91744 8.05376 27.5456 5.38624 49.37216 12.66176 65.40288 21.84704 16.03072 9.18016 24.064 19.1488 24.064 29.9008l0 29.8752c0 10.75712-8.03328 20.72064-24.064 29.90592-16.03584 9.18528-37.8624 16.48128-65.40288 21.84704-27.55072 5.36064-57.5232 8.05376-89.91744 8.05376-32.384 0-62.36672-2.66752-89.94304-8.02816-27.5456-5.37088-49.36704-12.63616-65.40288-21.84704-16.03584-9.18528-24.06912-19.1488-24.06912-29.9008L332.58496 362.51648zM691.38432 442.38336l0 39.71072c0 10.75712-8.03328 20.72064-24.064 29.90592-16.03584 9.17504-37.8624 16.48128-65.40288 21.85216-27.55072 5.35552-57.5232 8.04864-89.91744 8.04864-32.384 0-62.36672-2.69312-89.91744-8.04864-27.55072-5.39648-49.36704-12.67712-65.40288-21.85216-16.03584-9.18528-24.064-19.1488-24.064-29.90592l0-39.71072c18.51904 13.0816 43.81696 22.99392 75.88864 29.66528 32.09728 6.69696 66.58048 10.04544 103.49568 10.04544 36.91008 0 71.39328-3.34848 103.46496-10.04544C647.54688 465.3568 672.86528 455.46496 691.38432 442.38336zM691.38432 661.4784c0 10.75712-8.03328 20.73088-24.064 29.90592-16.03584 9.18528-37.8624 16.45056-65.40288 21.84704-27.55072 5.36064-57.5232 8.05888-89.91744 8.05888-32.384 0-62.36672-2.66752-89.91744-8.02816-27.55072-5.39136-49.36704-12.672-65.40288-21.85216-16.03584-9.16992-24.064-19.1488-24.064-29.9008l0-39.71072c18.51904 13.0816 43.81696 22.9376 75.88864 29.63456 32.09728 6.70208 66.58048 10.04544 103.49568 10.04544 36.91008 0 71.39328-3.34336 103.46496-10.04544 32.08192-6.69696 57.40032-16.58368 75.91936-29.66016L691.38432 661.4784zM691.40992 571.80672c0 10.752-8.02304 20.72576-24.06912 29.9008-16.03584 9.17504-37.85728 16.4864-65.39776 21.85216-27.5456 5.36064-57.52832 8.05376-89.91232 8.05376-32.38912 0-62.37184-2.69312-89.94304-8.05376-27.55072-5.39648-49.36704-12.67712-65.40288-21.85216-16.03584-9.17504-24.064-19.1488-24.064-29.9008l0-39.71584c18.51904 13.0816 43.81696 22.9632 75.88864 29.6704 32.09728 6.70208 66.58048 10.04544 103.49568 10.04544 36.91008 0 71.39328-3.34336 103.49056-10.04544 32.0768-6.7072 57.40544-16.5888 75.91936-29.6704L691.41504 571.80672z" /></svg>