<?xml version="1.0" standalone="no"?><!DOCTYPE svg PUBLIC "-//W3C//DTD SVG 1.1//EN" "http://www.w3.org/Graphics/SVG/1.1/DTD/svg11.dtd"><svg class="icon" width="200px" height="200.00px" viewBox="0 0 1024 1024" version="1.1" xmlns="http://www.w3.org/2000/svg"><path fill="#FF5F3E" d="M67.88511 346.703303c0-22.720468 3.854794-38.930661 11.135618-48.738028 7.451716-9.699919 23.812335-14.432711 49.466622-14.432711l108.354823 0 0 631.394251c0 0-134.287449-1.157359-108.269889-1.157359-22.228257 0.877997-37.903262-2.932796-46.961568-11.455913-9.015328-8.394181-13.640672-24.539906-13.640672-48.053436L67.970044 672.517857c0-9.250688 1.542122-16.296151 4.347005-20.729114 2.784416-4.582365 8.801457-7.816013 17.881253-9.529027 3.341095 0 7.709589-1.306762 13.619182-3.812839 5.652743-2.632967 11.456936-6.723122 17.174148-12.184507 5.717212-5.460362 10.706853-12.462846 14.797008-21.435195 4.068665-8.758478 6.209422-19.443841 6.209422-32.206516 0-19.358907-5.074575-34.412764-15.353686-45.376467-10.299577-10.899234-21.307282-17.34504-32.892131-18.866696-8.92937-1.627057-15.589047-4.497431-19.657712-8.244778-4.154623-3.940752-6.209422-10.385535-6.209422-19.636223L67.88511 346.703303 67.88511 346.703303 67.88511 346.703303 67.88511 346.703303zM195.042161 226.742141 195.042161 211.537857l0-1.285273 0-1.284249 0-15.118326c0-16.703427 6.509251-32.42141 19.144012-46.683229 12.676717-14.261818 26.532283-21.521153 41.329291-21.521153l96.170317 0 0 101.095489L195.042161 226.741118 195.042161 226.742141 195.042161 226.742141 195.042161 226.742141zM959.137737 500.713956c-6.445806 1.798972-11.307533 5.309936-14.240329 10.899234-2.63399 5.309936-4.347005 11.455913-4.347005 18.073634 0 6.873548 1.627057 13.319353 4.347005 19.571754 2.932796 6.445806 7.794523 10.899234 14.240329 13.340843 6.55223 2.65548 11.841699 7.66661 15.503089 15.118326 3.790326 7.665587 5.846148 15.567557 6.145977 24.090675 0.427742 8.394181-0.728594 16.488533-3.084245 23.941272-2.505054 7.537673-6.145977 13.063527-11.006681 16.511046-16.445554 10.107195-24.582885 21.435195-24.582885 34.047444s8.072863 25.375947 24.582885 37.774325c3.361561 2.676969 6.29538 7.323802 9.230222 13.834076 2.783393 6.895037 4.218068 13.577227 4.218068 20.449751 0 6.724145-1.499144 12.463869-4.860704 17.495466-3.362584 5.161556-9.079796 7.66661-17.303085 7.66661L891.36212 773.528412c-4.711302 0-7.494695-0.428765-7.794523-1.434675-0.427742-0.856507 0.149403-2.227738 1.648546-4.218068 1.648546-2.227738 3.640923-4.51892 6.145977-7.1744 2.505054-2.505054 4.497431-5.460362 6.29538-8.822946 4.069689-11.755742 4.069689-21.862937 0-30.257118-4.218068-8.544607-11.006681-15.546068-21.092387-21.435195-6.55223-3.361561-11.435447-8.673543-14.069437-15.996322-2.932796-7.023974-4.068665-14.412244-3.6399-22.014386 0.277316-7.665587 1.627057-14.261818 4.197602-20.149922 2.505054-6.018064 6.29538-10.236132 11.027148-12.741185 6.702656-2.527566 11.564383-7.1744 14.775518-13.854543 3.384074-6.595208 5.010107-13.834076 5.010107-21.435195 0-7.603165-1.433652-14.561647-3.640923-20.85805-2.505054-6.316869-6.145977-10.770298-11.283997-13.19144-6.445806-3.511987-11.584849-8.394181-15.375176-15.289218-3.704368-6.445806-5.503341-13.96199-5.503341-22.420639 0-8.544607 1.499144-16.638959 4.860704-24.690332 3.361561-8.008394 8.501628-14.540158 15.931854-19.571754 5.160533-3.341095 9.230222-7.944949 12.441357-13.834076 3.511987-6.01704 5.010107-12.184507 5.717212-18.930141 0.428765-6.810103-1.133823-13.255908-3.790326-19.572778-2.932796-6.381337-8.072863-11.541871-15.503089-15.760962-8.072863-4.154623-14.21884-10.407024-17.85874-18.287505-3.662413-8.008394-5.589298-16.359596-5.589298-24.668843 0-8.523117 1.926886-16.424064 5.589298-24.069185 3.640923-7.474228 8.778944-13.491269 15.353686-17.816784 13.9405-7.451716 21.799492-17.85874 22.870894-30.81482 1.284249-13.041014 0.277316-25.161053-3.062755-35.910884-2.65548-8.544607-7.451716-16.060791-14.668071-22.827915-7.494695-6.810103-17.002232-10.085706-28.437679-10.085706L427.084005 225.393423l0-99.746772 527.32094 0c5.717212 0 10.428513 2.162246 14.518668 6.316869 4.219091 4.240581 7.003508 9.251711 8.223289 15.204283 1.285273 5.867638 0.856507 11.970636-1.305739 18.287505-1.927909 6.230911-5.846148 11.692297-11.713786 15.910365-4.988618 4.219091-9.358135 9.529027-12.998035 16.33913-3.790326 6.745634-5.589298 13.619182-6.29538 20.857027-0.277316 7.259334 0.856507 14.261818 3.213181 21.521153 2.355651 7.088442 6.873548 12.398378 13.511735 15.782451 9.230222 5.010107 15.931854 11.970636 20.364817 20.729114 4.582365 8.822946 6.936993 17.623379 6.936993 26.381857 0 8.950859-2.355651 17.131169-6.852058 24.668843-4.517897 7.66661-10.727319 13.19144-19.015076 16.403598-9.079796 3.511987-15.803941 8.244778-19.808138 14.560624-4.218068 6.381337-6.27389 13.320377-6.852058 20.772093-0.427742 7.623631 1.134847 14.989389 4.711302 22.099321 3.790326 7.237845 9.785877 13.491269 18.010189 18.502399 8.222265 4.882194 14.368242 11.606339 18.009166 20.150946 3.662413 8.329712 5.161556 16.702404 4.861728 25.247011-0.428765 8.372691-2.506077 16.124236-6.145977 23.341614C971.986369 495.767294 966.633455 499.857449 959.137737 500.713956L959.137737 500.713956 959.137737 500.713956 959.137737 500.713956zM798.74677 481.783815c-9.80839 2.526543-17.453511 7.451716-22.892383 14.411221-5.288446 7.302313-8.072863 14.561647-8.629541 22.291702-0.299829 7.537673 1.77646 15.139815 6.145977 22.806425 4.711302 7.451716 11.285021 12.912078 20.49273 16.274662 8.094352 3.511987 14.368242 8.544607 18.458397 15.117302 4.219091 6.895037 6.424316 13.983479 6.852058 21.60711 0.428765 7.602142-1.133823 14.839986-4.347005 21.435195-3.232624 6.745634-8.222265 11.906168-14.797008 15.117302-20.514219 10.256598-31.30703 22.442128-31.949666 36.703947-1.00591 14.283308 6.852058 25.610284 23.298636 34.219359 7.43125 3.361561 13.426801 8.522094 17.859763 15.696494 4.582365 7.151887 7.002484 14.68956 7.516184 22.805402 0.428765 7.817036-1.156336 15.118326-4.517897 21.285792-3.213181 6.595208-8.630564 10.749832-15.931854 13.469779-9.936303 2.526543-17.430998 7.045463-23.020296 13.854543-5.139044 6.595208-7.92346 13.834076-8.351202 21.285792-0.578168 7.816013 1.499144 15.268752 6.145977 22.805402 4.497431 7.66661 11.712763 13.983479 21.499663 19.059078 6.724145 3.384074 11.30651 8.694009 14.219863 15.71696 2.932796 7.303336 3.940752 14.112416 3.232624 20.85805-1.00591 6.745634-3.232624 12.912078-7.002484 18.201547-3.640923 5.609765-8.801457 8.244778-15.524578 8.244778L309.649386 915.051659 309.649386 283.531542 794.956444 283.531542c6.573719 0 11.863189 2.591011 15.632025 8.244778 3.66139 5.460362 5.588275 11.478426 6.166443 18.308995 0.428765 6.810103-1.156336 13.469779-4.517897 20.129456-3.213181 6.681166-8.630564 11.392468-15.931854 13.834076-7.43125 2.591011-13.426801 6.809079-18.010189 12.698207-4.582365 5.803169-7.151887 12.484336-8.072863 19.508309-0.706081 7.237845 0.984421 14.047947 4.989641 20.857027 4.218068 6.809079 11.156084 11.82021 21.092387 15.118326 7.302313 3.38305 13.425777 8.394181 17.881253 15.20326 4.411473 6.810103 7.130398 13.619182 7.430226 20.729114 0.428765 7.366781-1.305739 13.96199-4.860704 20.429285C813.115012 474.758818 807.097972 479.277738 798.74677 481.783815L798.74677 481.783815 798.74677 481.783815 798.74677 481.783815zM622.144586 566.540174c-3.918239 0-8.351202-0.427742-12.998035-1.285273-4.432962-1.00591-5.28947-3.532453-3.084245-7.687076 1.00591-1.499144 4.861728-7.537673 11.864212-17.624403 7.002484-10.256598 14.668071-20.878516 23.448038-32.207539 8.651031-11.477402 16.445554-22.1423 24.15412-32.185027 7.303336-10.128685 11.864212-16.424064 13.449313-19.079544 4.218068-6.595208 1.648546-14.561647-7.43125-23.855314-1.520633-1.734504-4.882194-4.325515-9.936303-7.752568-4.711302-3.298116-9.293667-5.824659-13.383822-7.473205-6.702656-2.420119-11.435447-2.933819-14.347776-1.220804-2.65548 1.670036-6.29538 5.395894-10.364045 11.349489-1.648546 2.440585-5.718235 8.608052-12.441357 18.201547-6.510274 9.893324-13.512758 20.086477-20.944008 31.051203-7.365758 11.027148-14.21884 20.857027-20.363793 29.551036-6.29538 8.950859-9.722432 14.111392-10.450003 15.910365-1.563612 3.233648-4.77577 4.646833-9.359158 3.790326-4.497431-0.856507-7.494695-2.955308-9.078773-6.316869-0.985444-1.62808-4.561899-6.595208-11.221576-14.68956-6.638187-7.817036-13.70514-16.767895-21.00643-27.024493s-14.497179-19.422352-21.521153-28.395724c-7.066953-8.886391-11.713786-14.924921-14.283308-18.437931-7.430226-14.261818-15.22475-18.844184-23.363104-13.769608-5.803169 3.319605-11.006681 6.895037-15.589047 10.620895-4.497431 3.962242-8.779967 7.088442-12.870122 9.679453-8.223289 5.738701-9.444093 13.426801-3.704368 22.655999 13.919011 16.766872 26.360368 32.335453 37.08871 46.746674 8.993838 11.756765 17.559934 22.956851 25.954115 34.198893 8.137331 10.770298 13.062504 17.066701 14.647605 18.930141 1.713015 3.232624 0 5.031597-4.946662 5.031597l-14.647605 0c-4.090155 0-10.150174 0.128937-17.881253 0.557702-7.92346 0.449231-15.139815 0.299829-21.799492-0.557702-6.488785 0-11.927657 1.499144-16.060791 5.01113-4.025687 3.232624-5.310959 7.451716-3.597945 12.462846 0.813528 3.533476 1.242294 8.544607 1.242294 15.139815l0 15.418154c0 4.090155 1.134847 6.445806 3.704368 6.873548 2.505054 0.364297 5.28947 0.514723 8.651031 0.514723l71.630411 0c9.699919 0 14.646582 2.076288 14.646582 6.29538l0 23.961738c0 4.369517-0.728594 6.445806-2.441609 6.445806l-6.145977 0-12.441357 0-24.582885 0-24.733311 0-14.797008 0c-4.860704-0.856507-8.072863 0.428765-9.785877 3.66139-1.563612 3.51301-2.783393 7.303336-3.704368 11.478426-0.856507 4.369517-0.856507 8.244778 0 11.884678 0.920976 3.940752 1.113357 7.1744 1.113357 9.550517 0 11.028171 5.374404 16.488533 16.10377 16.488533l74.113975 0c4.304026 0 6.659677 0.556679 7.345292 1.777483 0.813528 1.305739 1.305739 4.090155 1.305739 8.244778 0.856507 4.240581 1.134847 11.755742 0.577145 22.677489-0.363274 11.027148-0.641613 18.11559-0.641613 21.649066 0 9.250688 5.352915 13.834076 15.996322 13.834076l39.593763 0c6.574742 0 9.936303-2.077312 9.936303-6.445806l0-8.694009 0-41.715077c0-8.523117 3.790326-12.763698 11.006681-12.763698l11.157107 0c5.717212 0 12.291954-0.149403 19.144012-0.727571 7.151887-0.278339 13.811564-0.556679 20.23588-0.556679l16.08228 0c11.434423 0 17.429974-4.240581 17.429974-12.484336l0-27.903513c0-7.665587-4.068665-11.455913-12.291954-11.455913l-71.758324 0c-8.072863 1.798972-12.441357 0-12.441357-5.010107 0-2.37714-0.127913-5.609765-0.577145-9.401114-0.406253-3.812839-0.49221-7.1744-0.49221-10.685363 0-3.233648 1.305739-5.889127 4.218068-7.451716 3.019777-1.798972 6.081509-2.65548 9.293667-2.65548l72.89317 0c8.094352 0 12.313443-2.805906 12.313443-8.822946l0-30.322609c0-3.384074-1.434675-6.595208-4.369517-9.956769-2.933819-3.533476-6.423293-5.03262-10.428513-5.03262L622.144586 566.537104 622.144586 566.540174 622.144586 566.540174 622.144586 566.540174zM622.144586 566.540174" /></svg>