<?xml version="1.0" standalone="no"?><!DOCTYPE svg PUBLIC "-//W3C//DTD SVG 1.1//EN" "http://www.w3.org/Graphics/SVG/1.1/DTD/svg11.dtd"><svg class="icon" width="200px" height="194.31px" viewBox="0 0 1054 1024" version="1.1" xmlns="http://www.w3.org/2000/svg"><path fill="#FF9900" d="M987.57027 438.745922M524.803507 1024.000013c-316.731163 0-449.559199-114.415064-449.559199-349.547266 0-194.792169 150.633836-398.072233 333.242496-462.193392l232.60962 0c182.63495 64.122412 333.267534 267.401223 333.267534 462.193392C974.362706 909.584949 841.53467 1024.000013 524.803507 1024.000013L524.803507 1024.000013zM649.387769 637.623047l0-0.073862c21.024439-0.108915 38.025266-17.352611 38.025266-38.596133 0-21.269812-17.000827-38.500989-38.025266-38.63369l0-0.0989-77.12216 0c0.170259-0.853797-0.097648-1.633732 0-2.500048l90.36603-93.304243c14.756167-16.767973 7.243504-30.634038-7.657883-45.840889-15.000288-15.293233-39.488739-18.499353-51.610905-5.170355l-77.706799 83.65834-83.926247-84.780044c-10.634906-10.720035-31.317576-7.219718-46.171391 7.793089-14.902639 15.049112-18.316576 35.927079-7.731746 46.645862l85.854176 86.682935c-1.609946 2.074401-2.634001 4.366634-3.268716 6.816605l-69.75597 0 0 0.073862-0.195297 0c-21.145874 0-38.268135 17.29252-38.268135 38.646209 0 21.328651 17.122261 38.647461 38.268135 38.647461 0.048824 0 0.121434-0.037557 0.195297-0.037557l0 0.073862 76.487446 0 0 38.487218-76.487446 0 0 0.110167-0.195297 0c-21.145874 0-38.268135 17.29252-38.268135 38.646209 0 21.329903 17.122261 38.646209 38.268135 38.646209 0.048824 0 0.121434-0.048824 0.195297-0.048824l0 0.048824 76.487446 0 0 38.901597 0.781187 0c-0.584638 3.012076-0.951445 6.171876-0.951445 9.389264 0 26.683036 21.415033 48.305884 47.828909 48.305884 26.415129 0 47.830161-21.621597 47.830161-48.305884 0-3.217388-0.366807-6.377188-0.952697-9.389264l0.439418 0 0-38.901597 77.268633-0.048824c21.024439-0.122686 38.049052-17.352611 38.049052-38.597385 0-21.256041-17.024613-38.487218-38.049052-38.622423l0-0.133953-77.268633 0L572.119136 637.623047 649.387769 637.623047 649.387769 637.623047zM706.55837 57.96621l-8.049729 10.146664c-0.194045 0.195297-0.290441 0.41438-0.48699 0.609676l-67.999552 85.840405-229.561239 0-67.876865-85.693932c-0.51328-0.488242-0.855049-1.085399-1.293215-1.621213l-7.364938-9.2816 1.291963-2.621482c-0.609676-2.377362-1.438435-4.694632-1.438435-7.268542 0-12.304943 7.657883-22.694476 18.390438-26.925905l0.877583-1.829029c0 0 94.049125-19.000114 172.195341-19.316845 81.755449-0.341769 172.170303 19.316845 172.170303 19.316845l0.925155 1.852815c10.659944 4.267733 18.267752 14.63348 18.267752 26.902118 0 2.525086-0.827507 4.768494-1.413397 7.097031L706.55837 57.96621 706.55837 57.96621zM706.55837 57.96621" /></svg>